<svg width="74" height="57" viewBox="0 0 74 57" fill="none" xmlns="http://www.w3.org/2000/svg">
<path d="M2.38 26.0989C1.92667 26.0989 1.52 25.9322 1.16 25.5989C0.8 25.2522 0.62 24.6722 0.62 23.8589C0.62 23.3255 0.693333 22.7322 0.84 22.0789C1 21.4255 1.18667 20.7522 1.4 20.0589C1.62667 19.3522 1.85333 18.6722 2.08 18.0189C2.30667 17.3655 2.49333 16.7722 2.64 16.2389C2.78667 15.7055 2.86 15.2855 2.86 14.9789C2.86 14.6189 2.72 14.4389 2.44 14.4389C2.10667 14.4389 1.79333 14.6322 1.5 15.0189C1.20667 15.3922 0.88 15.9189 0.52 16.5989L0.4 16.5589C0.4 15.5055 0.68 14.5922 1.24 13.8189C1.8 13.0322 2.55333 12.4255 3.5 11.9989C4.46 11.5722 5.52667 11.3589 6.7 11.3589C7.88667 11.3589 8.84667 11.5655 9.58 11.9789C10.3267 12.3789 10.8733 12.9055 11.22 13.5589C11.58 14.1989 11.76 14.8855 11.76 15.6189C11.76 16.2455 11.64 16.8722 11.4 17.4989C11.1733 18.1122 10.84 18.6722 10.4 19.1789C9.97333 19.6855 9.46667 20.0922 8.88 20.3989C8.29333 20.7055 7.64667 20.8589 6.94 20.8589C6.20667 20.8589 5.44667 20.6722 4.66 20.2989C4.48667 20.9522 4.33333 21.6189 4.2 22.2989C4.06667 22.9655 4 23.6522 4 24.3589C4 24.7055 4.02 25.0522 4.06 25.3989C3.83333 25.6255 3.56667 25.7989 3.26 25.9189C2.96667 26.0389 2.67333 26.0989 2.38 26.0989ZM5.58 18.8589C6.11333 18.8589 6.58 18.7122 6.98 18.4189C7.38 18.1122 7.68667 17.7322 7.9 17.2789C8.12667 16.8122 8.24 16.3455 8.24 15.8789C8.24 15.3322 8.06 14.8455 7.7 14.4189C7.35333 13.9922 6.78 13.7789 5.98 13.7789C5.87333 13.7789 5.74667 13.7855 5.6 13.7989C5.46667 13.8122 5.32667 13.8322 5.18 13.8589C5.28667 14.1922 5.35333 14.5255 5.38 14.8589C5.42 15.1789 5.44 15.4922 5.44 15.7989C5.44 16.3322 5.4 16.8455 5.32 17.3389C5.24 17.8322 5.14667 18.3189 5.04 18.7989C5.22667 18.8389 5.40667 18.8589 5.58 18.8589ZM16.2672 26.1589C15.2939 26.1589 14.4872 25.9655 13.8472 25.5789C13.2072 25.1789 12.7272 24.6589 12.4072 24.0189C12.0872 23.3655 11.9272 22.6655 11.9272 21.9189C11.9272 21.2122 12.0605 20.5055 12.3272 19.7989C12.6072 19.0789 13.0072 18.4255 13.5272 17.8389C14.0605 17.2522 14.7005 16.7789 15.4472 16.4189C16.2072 16.0589 17.0605 15.8789 18.0072 15.8789C19.1805 15.8789 20.0339 16.1455 20.5672 16.6789C21.1139 17.1989 21.3872 17.8322 21.3872 18.5789C21.3872 19.2189 21.2139 19.8122 20.8672 20.3589C20.5339 20.8922 20.0872 21.3255 19.5272 21.6589C18.9672 21.9789 18.3539 22.1389 17.6872 22.1389C17.3405 22.1389 16.9872 22.0855 16.6272 21.9789C16.2672 21.8722 15.9139 21.7055 15.5672 21.4789C15.6339 22.3055 15.8739 22.9055 16.2872 23.2789C16.7005 23.6522 17.1939 23.8389 17.7672 23.8389C18.1672 23.8389 18.5672 23.7655 18.9672 23.6189C19.3672 23.4589 19.7339 23.2589 20.0672 23.0189C20.4139 22.7655 20.6805 22.4989 20.8672 22.2189L21.0072 22.3189C21.0072 23.0122 20.8605 23.6055 20.5672 24.0989C20.2872 24.5789 19.9139 24.9722 19.4472 25.2789C18.9805 25.5855 18.4672 25.8122 17.9072 25.9589C17.3605 26.0922 16.8139 26.1589 16.2672 26.1589ZM16.7272 20.7589C17.1539 20.7589 17.5005 20.6389 17.7672 20.3989C18.0339 20.1455 18.2339 19.8522 18.3672 19.5189C18.5005 19.1855 18.5672 18.8922 18.5672 18.6389C18.5672 18.3322 18.4805 18.0789 18.3072 17.8789C18.1339 17.6655 17.8939 17.5589 17.5872 17.5589C17.3472 17.5589 17.0805 17.6455 16.7872 17.8189C16.5072 17.9922 16.2539 18.2922 16.0272 18.7189C15.8005 19.1322 15.6539 19.7122 15.5872 20.4589C16.0139 20.6589 16.3939 20.7589 16.7272 20.7589ZM24.7369 26.0989C24.2569 26.0989 23.8302 25.9055 23.4569 25.5189C23.0835 25.1189 22.8969 24.5589 22.8969 23.8389C22.8969 23.4922 22.9369 23.0989 23.0169 22.6589C23.0969 22.2189 23.1902 21.7722 23.2969 21.3189C23.4035 20.8522 23.4969 20.4189 23.5769 20.0189C23.6569 19.6055 23.6969 19.2655 23.6969 18.9989C23.6969 18.7189 23.6435 18.4989 23.5369 18.3389C23.4435 18.1655 23.3169 18.0789 23.1569 18.0789C22.9035 18.0789 22.6435 18.2522 22.3769 18.5989L22.2569 18.5189C22.2435 18.3055 22.2902 18.0522 22.3969 17.7589C22.5035 17.4655 22.6702 17.1855 22.8969 16.9189C23.1235 16.6389 23.4102 16.4055 23.7569 16.2189C24.1169 16.0322 24.5369 15.9389 25.0169 15.9389C25.7235 15.9389 26.2369 16.1455 26.5569 16.5589C26.8769 16.9589 27.0369 17.4455 27.0369 18.0189C27.0369 18.1122 27.0302 18.2122 27.0169 18.3189C27.0169 18.4122 27.0102 18.5055 26.9969 18.5989C27.4769 17.7322 27.9769 17.0722 28.4969 16.6189C29.0302 16.1522 29.5235 15.9189 29.9769 15.9189C30.4035 15.9189 30.7169 16.0855 30.9169 16.4189C31.1169 16.7522 31.2169 17.1522 31.2169 17.6189C31.2169 18.0455 31.1302 18.4789 30.9569 18.9189C30.7969 19.3589 30.5502 19.7255 30.2169 20.0189C29.8969 20.2989 29.5035 20.4322 29.0369 20.4189L28.9569 20.3789C28.9435 20.0322 28.8302 19.7589 28.6169 19.5589C28.4035 19.3589 28.1635 19.2589 27.8969 19.2589C27.5369 19.2589 27.1969 19.4389 26.8769 19.7989C26.5702 20.1589 26.4169 20.6789 26.4169 21.3589C26.4169 21.7722 26.4635 22.2189 26.5569 22.6989C26.6502 23.1789 26.6969 23.5855 26.6969 23.9189C26.6969 24.3189 26.6035 24.6855 26.4169 25.0189C26.2302 25.3522 25.9902 25.6189 25.6969 25.8189C25.4035 26.0055 25.0835 26.0989 24.7369 26.0989ZM50.4859 26.1589C49.5126 26.1589 48.7059 25.9655 48.0659 25.5789C47.4259 25.1789 46.9459 24.6589 46.6259 24.0189C46.3059 23.3655 46.1459 22.6655 46.1459 21.9189C46.1459 21.2122 46.2793 20.5055 46.5459 19.7989C46.8259 19.0789 47.2259 18.4255 47.7459 17.8389C48.2793 17.2522 48.9193 16.7789 49.6659 16.4189C50.4259 16.0589 51.2793 15.8789 52.2259 15.8789C53.3993 15.8789 54.2526 16.1455 54.7859 16.6789C55.3326 17.1989 55.6059 17.8322 55.6059 18.5789C55.6059 19.2189 55.4326 19.8122 55.0859 20.3589C54.7526 20.8922 54.3059 21.3255 53.7459 21.6589C53.1859 21.9789 52.5726 22.1389 51.9059 22.1389C51.5593 22.1389 51.2059 22.0855 50.8459 21.9789C50.4859 21.8722 50.1326 21.7055 49.7859 21.4789C49.8526 22.3055 50.0926 22.9055 50.5059 23.2789C50.9193 23.6522 51.4126 23.8389 51.9859 23.8389C52.3859 23.8389 52.7859 23.7655 53.1859 23.6189C53.5859 23.4589 53.9526 23.2589 54.2859 23.0189C54.6326 22.7655 54.8993 22.4989 55.0859 22.2189L55.2259 22.3189C55.2259 23.0122 55.0793 23.6055 54.7859 24.0989C54.5059 24.5789 54.1326 24.9722 53.6659 25.2789C53.1993 25.5855 52.6859 25.8122 52.1259 25.9589C51.5793 26.0922 51.0326 26.1589 50.4859 26.1589ZM50.9459 20.7589C51.3726 20.7589 51.7193 20.6389 51.9859 20.3989C52.2526 20.1455 52.4526 19.8522 52.5859 19.5189C52.7193 19.1855 52.7859 18.8922 52.7859 18.6389C52.7859 18.3322 52.6993 18.0789 52.5259 17.8789C52.3526 17.6655 52.1126 17.5589 51.8059 17.5589C51.5659 17.5589 51.2993 17.6455 51.0059 17.8189C50.7259 17.9922 50.4726 18.2922 50.2459 18.7189C50.0193 19.1322 49.8726 19.7122 49.8059 20.4589C50.2326 20.6589 50.6126 20.7589 50.9459 20.7589ZM60.6319 26.1589C59.7519 26.1589 59.0052 25.9589 58.3919 25.5589C57.7919 25.1589 57.3385 24.6389 57.0319 23.9989C56.7252 23.3455 56.5719 22.6455 56.5719 21.8989C56.5719 21.1922 56.7052 20.4855 56.9719 19.7789C57.2519 19.0722 57.6585 18.4255 58.1919 17.8389C58.7252 17.2389 59.3719 16.7655 60.1319 16.4189C60.9052 16.0589 61.7919 15.8789 62.7919 15.8789C63.7785 15.8789 64.5119 16.0789 64.9919 16.4789C65.4719 16.8655 65.7119 17.2922 65.7119 17.7589C65.7119 18.2522 65.4652 18.7055 64.9719 19.1189C64.4785 19.5322 63.7585 19.7389 62.8119 19.7389C62.8652 19.5389 62.9052 19.3389 62.9319 19.1389C62.9719 18.9255 62.9919 18.7255 62.9919 18.5389C62.9919 18.2589 62.9319 18.0255 62.8119 17.8389C62.6919 17.6389 62.4785 17.5389 62.1719 17.5389C61.8919 17.5389 61.5919 17.6655 61.2719 17.9189C60.9652 18.1722 60.6985 18.5455 60.4719 19.0389C60.2585 19.5322 60.1519 20.1389 60.1519 20.8589C60.1519 21.5655 60.2652 22.1389 60.4919 22.5789C60.7319 23.0189 61.0385 23.3389 61.4119 23.5389C61.7852 23.7255 62.1785 23.8189 62.5919 23.8189C63.1385 23.8189 63.6652 23.6789 64.1719 23.3989C64.6785 23.1055 65.0452 22.7055 65.2719 22.1989L65.4719 22.2789C65.4719 22.9722 65.3119 23.5655 64.9919 24.0589C64.6852 24.5389 64.2852 24.9389 63.7919 25.2589C63.2985 25.5655 62.7719 25.7922 62.2119 25.9389C61.6519 26.0855 61.1252 26.1589 60.6319 26.1589ZM69.5533 26.0989C69.1266 26.0989 68.7199 26.0055 68.3333 25.8189C67.9599 25.6189 67.6533 25.3122 67.4133 24.8989C67.1866 24.4855 67.0733 23.9589 67.0733 23.3189C67.0733 22.9722 67.1066 22.5189 67.1733 21.9589C67.2399 21.3989 67.3266 20.7855 67.4333 20.1189C67.5533 19.4522 67.6733 18.7855 67.7933 18.1189C67.5266 18.1322 67.2666 18.1589 67.0133 18.1989C66.7733 18.2389 66.5333 18.2855 66.2933 18.3389L66.2533 18.1989C66.5199 17.8789 66.7999 17.6055 67.0933 17.3789C67.3866 17.1522 67.6933 16.9655 68.0133 16.8189C68.1866 15.9389 68.3333 15.1789 68.4533 14.5389C68.5733 13.8855 68.6333 13.4989 68.6333 13.3789C68.6333 13.1522 68.8066 12.9655 69.1533 12.8189C69.5133 12.6722 69.9133 12.5989 70.3533 12.5989C70.7399 12.5989 71.0999 12.6722 71.4333 12.8189C71.7799 12.9655 72.0133 13.2122 72.1333 13.5589C72.0533 13.6389 71.9399 13.9389 71.7933 14.4589C71.6466 14.9655 71.4933 15.5855 71.3333 16.3189C71.5866 16.3322 71.8466 16.3455 72.1133 16.3589C72.3799 16.3722 72.6533 16.3922 72.9333 16.4189C72.9599 16.4989 72.9799 16.5855 72.9933 16.6789C73.0066 16.7722 73.0133 16.8722 73.0133 16.9789C73.0133 17.1789 72.9799 17.3989 72.9133 17.6389C72.8599 17.8655 72.7933 18.0722 72.7133 18.2589C72.3933 18.2322 72.0933 18.2055 71.8133 18.1789C71.5333 18.1389 71.2599 18.1122 70.9933 18.0989C70.8866 18.6722 70.7866 19.2455 70.6933 19.8189C70.6133 20.3922 70.5466 20.9122 70.4933 21.3789C70.4533 21.8455 70.4333 22.2122 70.4333 22.4789C70.4333 23.0389 70.5333 23.4122 70.7333 23.5989C70.9466 23.7855 71.1999 23.8789 71.4933 23.8789C71.7599 23.8789 71.9999 23.8255 72.2133 23.7189C72.4266 23.6122 72.5799 23.4855 72.6733 23.3389L72.8733 23.3989C72.7933 23.9455 72.5799 24.4255 72.2333 24.8389C71.8866 25.2389 71.4733 25.5522 70.9933 25.7789C70.5133 25.9922 70.0333 26.0989 69.5533 26.0989ZM2.38 52.0989C1.92667 52.0989 1.52 51.9322 1.16 51.5989C0.8 51.2522 0.62 50.6722 0.62 49.8589C0.62 49.3255 0.693333 48.7322 0.84 48.0789C1 47.4255 1.18667 46.7522 1.4 46.0589C1.62667 45.3522 1.85333 44.6722 2.08 44.0189C2.30667 43.3655 2.49333 42.7722 2.64 42.2389C2.78667 41.7055 2.86 41.2855 2.86 40.9789C2.86 40.6189 2.72 40.4389 2.44 40.4389C2.10667 40.4389 1.79333 40.6322 1.5 41.0189C1.20667 41.3922 0.88 41.9189 0.52 42.5989L0.4 42.5589C0.4 41.5055 0.68 40.5922 1.24 39.8189C1.8 39.0322 2.55333 38.4255 3.5 37.9989C4.46 37.5722 5.52667 37.3589 6.7 37.3589C7.88667 37.3589 8.84667 37.5655 9.58 37.9789C10.3267 38.3789 10.8733 38.9055 11.22 39.5589C11.58 40.1989 11.76 40.8855 11.76 41.6189C11.76 42.2455 11.64 42.8722 11.4 43.4989C11.1733 44.1122 10.84 44.6722 10.4 45.1789C9.97333 45.6855 9.46667 46.0922 8.88 46.3989C8.29333 46.7055 7.64667 46.8589 6.94 46.8589C6.20667 46.8589 5.44667 46.6722 4.66 46.2989C4.48667 46.9522 4.33333 47.6189 4.2 48.2989C4.06667 48.9655 4 49.6522 4 50.3589C4 50.7055 4.02 51.0522 4.06 51.3989C3.83333 51.6255 3.56667 51.7989 3.26 51.9189C2.96667 52.0389 2.67333 52.0989 2.38 52.0989ZM5.58 44.8589C6.11333 44.8589 6.58 44.7122 6.98 44.4189C7.38 44.1122 7.68667 43.7322 7.9 43.2789C8.12667 42.8122 8.24 42.3455 8.24 41.8789C8.24 41.3322 8.06 40.8455 7.7 40.4189C7.35333 39.9922 6.78 39.7789 5.98 39.7789C5.87333 39.7789 5.74667 39.7855 5.6 39.7989C5.46667 39.8122 5.32667 39.8322 5.18 39.8589C5.28667 40.1922 5.35333 40.5255 5.38 40.8589C5.42 41.1789 5.44 41.4922 5.44 41.7989C5.44 42.3322 5.4 42.8455 5.32 43.3389C5.24 43.8322 5.14667 44.3189 5.04 44.7989C5.22667 44.8389 5.40667 44.8589 5.58 44.8589ZM16.2545 41.3189C15.7212 41.3189 15.2812 41.1589 14.9345 40.8389C14.6012 40.5055 14.4345 40.0922 14.4345 39.5989C14.4345 39.0655 14.6345 38.6055 15.0345 38.2189C15.4345 37.8322 15.9212 37.6389 16.4945 37.6389C17.0279 37.6389 17.4612 37.8055 17.7945 38.1389C18.1412 38.4722 18.3145 38.8855 18.3145 39.3789C18.3145 39.9122 18.1145 40.3722 17.7145 40.7589C17.3145 41.1322 16.8279 41.3189 16.2545 41.3189ZM14.8545 52.0989C14.3345 52.0989 13.8679 51.9189 13.4545 51.5589C13.0412 51.1855 12.8345 50.5922 12.8345 49.7789C12.8345 49.3122 12.8945 48.8789 13.0145 48.4789C13.1479 48.0655 13.2945 47.6655 13.4545 47.2789C13.6279 46.8922 13.7745 46.5189 13.8945 46.1589C14.0279 45.7855 14.0945 45.4189 14.0945 45.0589C14.0945 44.7389 14.0412 44.5122 13.9345 44.3789C13.8279 44.2322 13.7012 44.1589 13.5545 44.1589C13.3279 44.1589 13.1079 44.3055 12.8945 44.5989L12.7545 44.5189C12.8079 43.9855 12.9745 43.5322 13.2545 43.1589C13.5479 42.7722 13.9012 42.4722 14.3145 42.2589C14.7412 42.0455 15.1612 41.9389 15.5745 41.9389C16.0812 41.9389 16.5212 42.1055 16.8945 42.4389C17.2679 42.7589 17.4545 43.2855 17.4545 44.0189C17.4545 44.4589 17.3879 44.9255 17.2545 45.4189C17.1345 45.8989 16.9879 46.3789 16.8145 46.8589C16.6545 47.3389 16.5079 47.7855 16.3745 48.1989C16.2545 48.6122 16.1945 48.9655 16.1945 49.2589C16.1945 49.5122 16.2412 49.6922 16.3345 49.7989C16.4412 49.9055 16.5545 49.9589 16.6745 49.9589C16.7945 49.9589 16.9079 49.9255 17.0145 49.8589C17.1345 49.7789 17.2212 49.6922 17.2745 49.5989L17.4145 49.6389C17.4145 50.1322 17.2812 50.5655 17.0145 50.9389C16.7612 51.2989 16.4412 51.5855 16.0545 51.7989C15.6679 51.9989 15.2679 52.0989 14.8545 52.0989ZM21.8384 52.0989C21.4118 52.0989 21.0051 52.0055 20.6184 51.8189C20.2451 51.6189 19.9384 51.3122 19.6984 50.8989C19.4718 50.4855 19.3584 49.9589 19.3584 49.3189C19.3584 48.9722 19.3918 48.5189 19.4584 47.9589C19.5251 47.3989 19.6118 46.7855 19.7184 46.1189C19.8384 45.4522 19.9584 44.7855 20.0784 44.1189C19.8118 44.1322 19.5518 44.1589 19.2984 44.1989C19.0584 44.2389 18.8184 44.2855 18.5784 44.3389L18.5384 44.1989C18.8051 43.8789 19.0851 43.6055 19.3784 43.3789C19.6718 43.1522 19.9784 42.9655 20.2984 42.8189C20.4718 41.9389 20.6184 41.1789 20.7384 40.5389C20.8584 39.8855 20.9184 39.4989 20.9184 39.3789C20.9184 39.1522 21.0918 38.9655 21.4384 38.8189C21.7984 38.6722 22.1984 38.5989 22.6384 38.5989C23.0251 38.5989 23.3851 38.6722 23.7184 38.8189C24.0651 38.9655 24.2984 39.2122 24.4184 39.5589C24.3384 39.6389 24.2251 39.9389 24.0784 40.4589C23.9318 40.9655 23.7784 41.5855 23.6184 42.3189C23.8718 42.3322 24.1318 42.3455 24.3984 42.3589C24.6651 42.3722 24.9384 42.3922 25.2184 42.4189C25.2451 42.4989 25.2651 42.5855 25.2784 42.6789C25.2918 42.7722 25.2984 42.8722 25.2984 42.9789C25.2984 43.1789 25.2651 43.3989 25.1984 43.6389C25.1451 43.8655 25.0784 44.0722 24.9984 44.2589C24.6784 44.2322 24.3784 44.2055 24.0984 44.1789C23.8184 44.1389 23.5451 44.1122 23.2784 44.0989C23.1718 44.6722 23.0718 45.2455 22.9784 45.8189C22.8984 46.3922 22.8318 46.9122 22.7784 47.3789C22.7384 47.8455 22.7184 48.2122 22.7184 48.4789C22.7184 49.0389 22.8184 49.4122 23.0184 49.5989C23.2318 49.7855 23.4851 49.8789 23.7784 49.8789C24.0451 49.8789 24.2851 49.8255 24.4984 49.7189C24.7118 49.6122 24.8651 49.4855 24.9584 49.3389L25.1584 49.3989C25.0784 49.9455 24.8651 50.4255 24.5184 50.8389C24.1718 51.2389 23.7584 51.5522 23.2784 51.7789C22.7984 51.9922 22.3184 52.0989 21.8384 52.0989ZM29.8311 52.1589C28.9511 52.1589 28.2044 51.9589 27.5911 51.5589C26.9911 51.1589 26.5378 50.6389 26.2311 49.9989C25.9244 49.3455 25.7711 48.6455 25.7711 47.8989C25.7711 47.1922 25.9044 46.4855 26.1711 45.7789C26.4511 45.0722 26.8578 44.4255 27.3911 43.8389C27.9244 43.2389 28.5711 42.7655 29.3311 42.4189C30.1044 42.0589 30.9911 41.8789 31.9911 41.8789C32.9778 41.8789 33.7111 42.0789 34.1911 42.4789C34.6711 42.8655 34.9111 43.2922 34.9111 43.7589C34.9111 44.2522 34.6644 44.7055 34.1711 45.1189C33.6778 45.5322 32.9578 45.7389 32.0111 45.7389C32.0644 45.5389 32.1044 45.3389 32.1311 45.1389C32.1711 44.9255 32.1911 44.7255 32.1911 44.5389C32.1911 44.2589 32.1311 44.0255 32.0111 43.8389C31.8911 43.6389 31.6778 43.5389 31.3711 43.5389C31.0911 43.5389 30.7911 43.6655 30.4711 43.9189C30.1644 44.1722 29.8978 44.5455 29.6711 45.0389C29.4578 45.5322 29.3511 46.1389 29.3511 46.8589C29.3511 47.5655 29.4644 48.1389 29.6911 48.5789C29.9311 49.0189 30.2378 49.3389 30.6111 49.5389C30.9844 49.7255 31.3778 49.8189 31.7911 49.8189C32.3378 49.8189 32.8644 49.6789 33.3711 49.3989C33.8778 49.1055 34.2444 48.7055 34.4711 48.1989L34.6711 48.2789C34.6711 48.9722 34.5111 49.5655 34.1911 50.0589C33.8844 50.5389 33.4844 50.9389 32.9911 51.2589C32.4978 51.5655 31.9711 51.7922 31.4111 51.9389C30.8511 52.0855 30.3244 52.1589 29.8311 52.1589ZM37.7563 52.0989C37.1829 52.0989 36.7229 51.9055 36.3763 51.5189C36.0296 51.1322 35.8563 50.6055 35.8563 49.9389C35.8563 49.5789 35.9029 49.1122 35.9963 48.5389C36.0896 47.9522 36.2029 47.3122 36.3363 46.6189C36.4829 45.9122 36.6229 45.1989 36.7563 44.4789C36.8896 43.7455 37.0029 43.0389 37.0963 42.3589C37.1896 41.6789 37.2363 41.0789 37.2363 40.5589C37.2363 39.9055 37.1496 39.4322 36.9763 39.1389V39.0189C37.2696 38.6855 37.5896 38.4389 37.9363 38.2789C38.2829 38.1189 38.6229 38.0389 38.9563 38.0389C39.4629 38.0389 39.8963 38.2189 40.2563 38.5789C40.6163 38.9389 40.7963 39.4789 40.7963 40.1989C40.7963 40.5855 40.7429 41.0589 40.6363 41.6189C40.5296 42.1789 40.4029 42.7655 40.2563 43.3789C40.1096 43.9922 39.9629 44.5655 39.8163 45.0989C40.0696 44.6055 40.4029 44.1189 40.8163 43.6389C41.2429 43.1455 41.7229 42.7389 42.2563 42.4189C42.8029 42.0989 43.3696 41.9389 43.9563 41.9389C44.6229 41.9389 45.0696 42.1455 45.2963 42.5589C45.5363 42.9722 45.6563 43.4855 45.6563 44.0989C45.6563 44.6589 45.5963 45.2589 45.4763 45.8989C45.3563 46.5255 45.2363 47.1322 45.1163 47.7189C44.9963 48.2922 44.9363 48.7722 44.9363 49.1589C44.9363 49.7189 45.1029 49.9989 45.4362 49.9989C45.5829 49.9989 45.7096 49.9589 45.8163 49.8789C45.9363 49.7855 46.0229 49.6855 46.0763 49.5789L46.2163 49.6789C46.2163 50.1989 46.0896 50.6389 45.8363 50.9989C45.5829 51.3589 45.2563 51.6322 44.8563 51.8189C44.4696 52.0055 44.0696 52.0989 43.6563 52.0989C43.1096 52.0989 42.6163 51.9189 42.1763 51.5589C41.7363 51.1855 41.5163 50.5855 41.5163 49.7589C41.5163 49.2922 41.5763 48.7855 41.6963 48.2389C41.8296 47.6922 41.9563 47.1655 42.0763 46.6589C42.1963 46.1389 42.2563 45.7055 42.2563 45.3589C42.2563 44.9055 42.0963 44.6789 41.7763 44.6789C41.4829 44.6789 41.1629 44.8255 40.8163 45.1189C40.4696 45.4122 40.1629 45.7789 39.8963 46.2189C39.6429 46.6589 39.4763 47.0922 39.3963 47.5189C39.3696 47.6255 39.3563 47.7522 39.3563 47.8989C39.3563 48.2322 39.4029 48.5522 39.4963 48.8589C39.6029 49.1655 39.6563 49.5255 39.6563 49.9389C39.6563 50.5522 39.4963 51.0655 39.1763 51.4789C38.8563 51.8922 38.3829 52.0989 37.7563 52.0989ZM51.5406 52.1589C50.5673 52.1589 49.7606 51.9655 49.1206 51.5789C48.4806 51.1789 48.0006 50.6589 47.6806 50.0189C47.3606 49.3655 47.2006 48.6655 47.2006 47.9189C47.2006 47.2122 47.334 46.5055 47.6006 45.7989C47.8806 45.0789 48.2806 44.4255 48.8006 43.8389C49.334 43.2522 49.974 42.7789 50.7206 42.4189C51.4806 42.0589 52.334 41.8789 53.2806 41.8789C54.454 41.8789 55.3073 42.1455 55.8406 42.6789C56.3873 43.1989 56.6606 43.8322 56.6606 44.5789C56.6606 45.2189 56.4873 45.8122 56.1406 46.3589C55.8073 46.8922 55.3606 47.3255 54.8006 47.6589C54.2406 47.9789 53.6273 48.1389 52.9606 48.1389C52.614 48.1389 52.2606 48.0855 51.9006 47.9789C51.5406 47.8722 51.1873 47.7055 50.8406 47.4789C50.9073 48.3055 51.1473 48.9055 51.5606 49.2789C51.974 49.6522 52.4673 49.8389 53.0406 49.8389C53.4406 49.8389 53.8406 49.7655 54.2406 49.6189C54.6406 49.4589 55.0073 49.2589 55.3406 49.0189C55.6873 48.7655 55.954 48.4989 56.1406 48.2189L56.2806 48.3189C56.2806 49.0122 56.134 49.6055 55.8406 50.0989C55.5606 50.5789 55.1873 50.9722 54.7206 51.2789C54.254 51.5855 53.7406 51.8122 53.1806 51.9589C52.634 52.0922 52.0873 52.1589 51.5406 52.1589ZM52.0006 46.7589C52.4273 46.7589 52.774 46.6389 53.0406 46.3989C53.3073 46.1455 53.5073 45.8522 53.6406 45.5189C53.774 45.1855 53.8406 44.8922 53.8406 44.6389C53.8406 44.3322 53.754 44.0789 53.5806 43.8789C53.4073 43.6655 53.1673 43.5589 52.8606 43.5589C52.6206 43.5589 52.354 43.6455 52.0606 43.8189C51.7806 43.9922 51.5273 44.2922 51.3006 44.7189C51.074 45.1322 50.9273 45.7122 50.8606 46.4589C51.2873 46.6589 51.6673 46.7589 52.0006 46.7589ZM60.0103 52.0989C59.5303 52.0989 59.1036 51.9055 58.7303 51.5189C58.357 51.1189 58.1703 50.5589 58.1703 49.8389C58.1703 49.4922 58.2103 49.0989 58.2903 48.6589C58.3703 48.2189 58.4636 47.7722 58.5703 47.3189C58.677 46.8522 58.7703 46.4189 58.8503 46.0189C58.9303 45.6055 58.9703 45.2655 58.9703 44.9989C58.9703 44.7189 58.917 44.4989 58.8103 44.3389C58.717 44.1655 58.5903 44.0789 58.4303 44.0789C58.177 44.0789 57.917 44.2522 57.6503 44.5989L57.5303 44.5189C57.517 44.3055 57.5636 44.0522 57.6703 43.7589C57.777 43.4655 57.9436 43.1855 58.1703 42.9189C58.397 42.6389 58.6836 42.4055 59.0303 42.2189C59.3903 42.0322 59.8103 41.9389 60.2903 41.9389C60.997 41.9389 61.5103 42.1455 61.8303 42.5589C62.1503 42.9589 62.3103 43.4455 62.3103 44.0189C62.3103 44.1122 62.3036 44.2122 62.2903 44.3189C62.2903 44.4122 62.2836 44.5055 62.2703 44.5989C62.7503 43.7322 63.2503 43.0722 63.7703 42.6189C64.3036 42.1522 64.797 41.9189 65.2503 41.9189C65.677 41.9189 65.9903 42.0855 66.1903 42.4189C66.3903 42.7522 66.4903 43.1522 66.4903 43.6189C66.4903 44.0455 66.4036 44.4789 66.2303 44.9189C66.0703 45.3589 65.8236 45.7255 65.4903 46.0189C65.1703 46.2989 64.777 46.4322 64.3103 46.4189L64.2303 46.3789C64.217 46.0322 64.1036 45.7589 63.8903 45.5589C63.677 45.3589 63.437 45.2589 63.1703 45.2589C62.8103 45.2589 62.4703 45.4389 62.1503 45.7989C61.8436 46.1589 61.6903 46.6789 61.6903 47.3589C61.6903 47.7722 61.737 48.2189 61.8303 48.6989C61.9236 49.1789 61.9703 49.5855 61.9703 49.9189C61.9703 50.3189 61.877 50.6855 61.6903 51.0189C61.5036 51.3522 61.2636 51.6189 60.9703 51.8189C60.677 52.0055 60.357 52.0989 60.0103 52.0989Z" fill="black"/>
<path d="M44.164 19.8024C43.506 17.5257 41.8975 16.5224 39.9965 16.5224C39.8502 16.5224 39.704 16.5224 39.5578 16.561C39.4116 15.4034 39.3019 14.3229 39.1922 13.3196C39.9599 12.5478 40.6911 11.8532 41.1298 11.313C42.2996 9.84667 43.0307 7.87867 43.177 5.87209C43.3232 3.36386 42.3727 0.0838724 41.4222 0.0452843C40.7642 0.0452843 39.8502 0.778458 39.0825 2.66928C38.388 4.40574 38.0589 5.44762 38.2052 8.14879C38.2417 8.61185 38.3148 9.46078 38.4245 10.5413C37.1816 11.7761 35.6096 13.3582 34.257 15.0561C31.9539 17.9502 31.7345 21.809 33.928 24.5487C35.6096 26.6711 38.2783 26.9026 40.2889 26.4781C40.5083 28.3304 40.6545 29.6424 40.6545 29.8739C40.7276 31.0701 40.6545 33.3468 38.9729 33.9642C37.5837 34.4659 36.9257 34.1958 36.4504 34.0028C35.9752 33.7713 35.7924 33.2311 36.1945 33.2311C37.145 33.2697 37.9858 32.4207 38.0224 31.3402C38.0589 30.2598 37.2912 29.3723 36.2676 29.3337C35.3903 29.2951 34.6226 29.9511 34.4398 30.8772C34.3301 31.2631 34.3301 31.7647 34.4398 32.2664C34.6226 33.1539 35.3172 33.8871 35.7193 34.1186C37.3278 35.1219 39.046 34.6202 39.8868 33.9642C40.7642 33.3082 41.276 31.9191 41.1298 29.7581C41.0932 29.2565 40.947 27.9831 40.7642 26.2852C41.276 26.1308 41.6781 25.9379 42.0437 25.745C43.9812 24.6645 44.8586 22.0791 44.164 19.8024ZM38.8266 9.46078C38.6439 6.83679 39.5578 4.63727 40.3621 3.78833C41.3857 2.63069 42.4824 2.82363 42.5555 4.17421C42.6652 5.87209 41.276 7.68573 40.2889 8.7662C39.9965 9.11349 39.4847 9.57655 38.8998 10.1554C38.8266 9.84667 38.8266 9.61514 38.8266 9.46078ZM40.0696 25.9379C38.1686 26.2852 35.8655 25.6292 34.6957 23.4297C33.4527 21.0758 34.5129 18.3361 35.6462 16.9469C36.4139 16.0208 37.6203 14.8631 38.7535 13.7827C38.8632 14.7088 38.9729 15.6735 39.0825 16.6768C37.4009 17.1398 36.0117 18.6833 35.9021 20.7285C35.7193 23.9313 38.1321 24.8189 38.2052 24.5873C38.2783 24.3944 37.8762 24.3558 37.474 23.777C37.0719 23.1596 37.0353 22.3106 37.0719 21.6546C37.1816 20.5742 37.9493 19.4551 39.375 19.2622C39.6675 21.6546 39.9599 24.0471 40.1793 25.9765C40.1427 25.9379 40.1061 25.9379 40.0696 25.9379ZM40.6911 25.7836C40.4717 23.8542 40.1793 21.5003 39.9234 19.185C41.5319 19.185 42.7017 20.1883 42.9211 21.809C43.1038 23.3139 42.5555 25.1276 40.6911 25.7836Z" fill="black"/>
</svg>
