<svg width="45" height="45" viewBox="0 0 45 45" fill="none" xmlns="http://www.w3.org/2000/svg">
<g filter="url(#filter0_d_0_1)">
<rect x="4" y="4" width="37" height="37" rx="3" fill="#FFBB3B"/>
</g>
<path d="M23 11C25.9561 11 28.7293 12.1943 30.7782 14.2804C31.1478 14.6567 31.4902 15.0587 31.8028 15.4828L31.8 13.24C31.8 12.6656 32.2247 12.1922 32.7717 12.1275L32.9 12.12C33.4641 12.12 33.9291 12.5524 33.9926 13.1094L34 13.24V18.84C34 19.4144 33.5753 19.8878 33.0283 19.9525L32.9 19.96H27.4C26.7925 19.96 26.3 19.4586 26.3 18.84C26.3 18.2656 26.7247 17.7922 27.2717 17.7275L27.4 17.72L30.6231 17.7202C30.2386 17.0436 29.7677 16.4194 29.2225 15.8643C27.5822 14.1941 25.3667 13.24 23 13.24C18.1399 13.24 14.2 17.2515 14.2 22.2C14.2 27.1485 18.1399 31.16 23 31.16C25.3667 31.16 27.5822 30.2059 29.2225 28.5357C30.0398 27.7036 30.6902 26.7159 31.1327 25.6293C31.3528 25.0891 31.5203 24.5271 31.6325 23.9498C31.7504 23.343 32.3291 22.9484 32.925 23.0685C33.521 23.1885 33.9086 23.7777 33.7907 24.3845C33.6503 25.1072 33.4404 25.8109 33.165 26.4873C32.6115 27.8464 31.7987 29.0805 30.7782 30.1196C28.7293 32.2057 25.9561 33.4 23 33.4C16.9249 33.4 12 28.3856 12 22.2C12 16.0144 16.9249 11 23 11Z" fill="black"/>
<path d="M21.0744 24.4055V24.2485C21.0775 23.7099 21.1252 23.2806 21.2175 22.9605C21.3129 22.6404 21.4514 22.3819 21.633 22.1849C21.8146 21.988 22.0331 21.8095 22.2885 21.6494C22.4794 21.5263 22.6502 21.3986 22.801 21.2663C22.9518 21.1339 23.0718 20.9877 23.1611 20.8277C23.2503 20.6646 23.2949 20.483 23.2949 20.283C23.2949 20.0706 23.2442 19.8844 23.1426 19.7244C23.041 19.5643 22.9041 19.4412 22.7317 19.355C22.5625 19.2689 22.3747 19.2258 22.1685 19.2258C21.9685 19.2258 21.7792 19.2704 21.6007 19.3597C21.4222 19.4458 21.276 19.5751 21.1621 19.7474C21.0482 19.9167 20.9867 20.1275 20.9775 20.3799H19.0939C19.1093 19.7644 19.2571 19.2566 19.5371 18.8565C19.8172 18.4533 20.188 18.1532 20.6497 17.9563C21.1113 17.7562 21.6207 17.6562 22.1777 17.6562C22.7902 17.6562 23.3319 17.7577 23.8027 17.9609C24.2736 18.1609 24.6429 18.4518 24.9107 18.8334C25.1785 19.215 25.3123 19.6751 25.3123 20.2137C25.3123 20.5738 25.2523 20.8939 25.1323 21.1739C25.0153 21.4509 24.8507 21.6971 24.6383 21.9126C24.426 22.1249 24.1751 22.3173 23.8858 22.4896C23.6427 22.6343 23.4427 22.7851 23.2857 22.942C23.1318 23.099 23.0164 23.2806 22.9395 23.4868C22.8656 23.693 22.8271 23.9469 22.8241 24.2485V24.4055H21.0744ZM21.9885 27.36C21.6807 27.36 21.4176 27.2523 21.1991 27.0369C20.9836 26.8184 20.8774 26.5568 20.8805 26.2521C20.8774 25.9505 20.9836 25.6919 21.1991 25.4765C21.4176 25.2611 21.6807 25.1533 21.9885 25.1533C22.2808 25.1533 22.5378 25.2611 22.7594 25.4765C22.981 25.6919 23.0933 25.9505 23.0964 26.2521C23.0933 26.4552 23.0395 26.6414 22.9348 26.8107C22.8333 26.9769 22.6994 27.1107 22.5332 27.2123C22.367 27.3108 22.1854 27.36 21.9885 27.36Z" fill="black"/>
<defs>
<filter id="filter0_d_0_1" x="0" y="0" width="45" height="45" filterUnits="userSpaceOnUse" color-interpolation-filters="sRGB">
<feFlood flood-opacity="0" result="BackgroundImageFix"/>
<feColorMatrix in="SourceAlpha" type="matrix" values="0 0 0 0 0 0 0 0 0 0 0 0 0 0 0 0 0 0 127 0" result="hardAlpha"/>
<feOffset/>
<feGaussianBlur stdDeviation="2"/>
<feComposite in2="hardAlpha" operator="out"/>
<feColorMatrix type="matrix" values="0 0 0 0 0 0 0 0 0 0 0 0 0 0 0 0 0 0 0.35 0"/>
<feBlend mode="normal" in2="BackgroundImageFix" result="effect1_dropShadow_0_1"/>
<feBlend mode="normal" in="SourceGraphic" in2="effect1_dropShadow_0_1" result="shape"/>
</filter>
</defs>
</svg>
