<svg width="101" height="100" viewBox="0 0 101 100" fill="none" xmlns="http://www.w3.org/2000/svg">
<path d="M84.5956 41.3L86.9956 40C89.3956 38.7 90.2956 35.6 88.9956 33.2L85.1956 26.3C83.8956 23.9 80.7956 23 78.3956 24.3L75.9956 25.6C74.1956 26.6 71.9956 26.4 70.3956 25.1C67.9956 23.2 65.3956 21.6 62.4956 20.4C60.5956 19.6 59.3956 17.8 59.3956 15.7V13C59.3956 10.2 57.0956 8 54.3956 8H46.2956C43.4956 8 41.2956 10.3 41.2956 13V15.7C41.2956 17.7 40.0956 19.6 38.1956 20.3C35.6956 21.3 33.3956 22.6 31.2956 24.2C29.6956 25.4 27.4956 25.5 25.6956 24.4L23.3956 23C20.9956 21.6 17.8956 22.3 16.4956 24.7L12.3956 31.5C10.9956 33.9 11.6956 37 14.0956 38.4L16.3956 39.8C18.0956 40.9 19.0956 42.9 18.7956 44.9C18.3956 46.6 18.2956 48.3 18.2956 50C18.2956 51.3 18.3956 52.5 18.4956 53.7C18.6956 55.7 17.6956 57.7 15.8956 58.7L13.5956 60C11.1956 61.3 10.2956 64.4 11.5956 66.8L15.3956 73.7C16.6956 76.1 19.7956 77 22.1956 75.7L24.5956 74.4C26.3956 73.4 28.5956 73.6 30.1956 74.9C32.5956 76.8 35.1956 78.4 38.0956 79.6C39.9956 80.4 41.1956 82.2 41.1956 84.3V87C41.1956 89.8 43.4956 92 46.1956 92H54.2956C57.0956 92 59.2956 89.7 59.2956 87V84.3C59.2956 82.3 60.4956 80.4 62.3956 79.7C64.8956 78.7 67.1956 77.4 69.2956 75.8C70.8956 74.6 73.0956 74.5 74.8956 75.6L77.1956 77C79.5956 78.4 82.6956 77.7 84.0956 75.3L88.1956 68.5C89.5956 66.1 88.8956 63 86.4956 61.6L84.2956 60.1C82.5956 59 81.5956 57 81.8956 55C82.1956 53.4 82.2956 51.7 82.2956 49.9C82.2956 48.6 82.1956 47.4 82.0956 46.2C81.7956 44.2 82.8956 42.3 84.5956 41.3ZM50.2956 68C40.3956 68 32.2956 59.9 32.2956 50C32.2956 40.1 40.3956 32 50.2956 32C60.1956 32 68.2956 40.1 68.2956 50C68.2956 59.9 60.1956 68 50.2956 68Z" fill="black"/>
</svg>
